<mxfile host="app.diagrams.net" modified="2023-08-16T14:07:08.302Z" agent="Mozilla/5.0 (Windows NT 10.0; Win64; x64) AppleWebKit/537.36 (KHTML, like Gecko) Chrome/115.0.0.0 Safari/537.36" etag="6FWzwZxAmqV6eoj59JkM" version="21.6.8" type="github">
  <diagram name="페이지-1" id="_mJsWbttWPfQ1Atq35So">
    <mxGraphModel dx="989" dy="517" grid="1" gridSize="10" guides="1" tooltips="1" connect="1" arrows="1" fold="1" page="1" pageScale="1" pageWidth="827" pageHeight="1169" math="0" shadow="0">
      <root>
        <mxCell id="0" />
        <mxCell id="1" parent="0" />
        <mxCell id="MUbadtuSSWlXPX1V-RnH-1" value="" style="image;html=1;image=img/lib/clip_art/telecommunication/iPhone_128x128.png" parent="1" vertex="1">
          <mxGeometry x="70" y="340" width="80" height="80" as="geometry" />
        </mxCell>
        <mxCell id="MUbadtuSSWlXPX1V-RnH-2" value="" style="endArrow=classic;html=1;rounded=0;exitX=1;exitY=0.5;exitDx=0;exitDy=0;" parent="1" source="MUbadtuSSWlXPX1V-RnH-1" edge="1">
          <mxGeometry width="50" height="50" relative="1" as="geometry">
            <mxPoint x="390" y="410" as="sourcePoint" />
            <mxPoint x="250" y="380" as="targetPoint" />
          </mxGeometry>
        </mxCell>
        <mxCell id="MUbadtuSSWlXPX1V-RnH-3" value="Text" style="edgeLabel;html=1;align=center;verticalAlign=middle;resizable=0;points=[];" parent="MUbadtuSSWlXPX1V-RnH-2" vertex="1" connectable="0">
          <mxGeometry x="0.8" y="2" relative="1" as="geometry">
            <mxPoint x="-50" y="-8" as="offset" />
          </mxGeometry>
        </mxCell>
        <mxCell id="MUbadtuSSWlXPX1V-RnH-4" value="" style="strokeColor=#dddddd;shadow=1;strokeWidth=1;rounded=1;absoluteArcSize=1;arcSize=2;aspect=fixed;" parent="1" vertex="1">
          <mxGeometry x="280" y="350" width="100" height="60" as="geometry" />
        </mxCell>
        <mxCell id="MUbadtuSSWlXPX1V-RnH-5" value="Firebase" style="sketch=0;dashed=0;connectable=0;html=1;fillColor=#5184F3;strokeColor=none;shape=mxgraph.gcp2.firebase;part=1;labelPosition=right;verticalLabelPosition=middle;align=left;verticalAlign=middle;spacingLeft=5;fontColor=#999999;fontSize=12;" parent="MUbadtuSSWlXPX1V-RnH-4" vertex="1">
          <mxGeometry width="32.4" height="45" relative="1" as="geometry">
            <mxPoint x="5" y="7" as="offset" />
          </mxGeometry>
        </mxCell>
        <mxCell id="MUbadtuSSWlXPX1V-RnH-13" value="" style="strokeColor=#dddddd;shadow=1;strokeWidth=1;rounded=1;absoluteArcSize=1;arcSize=2;" parent="1" vertex="1">
          <mxGeometry x="490" y="260" width="160" height="60" as="geometry" />
        </mxCell>
        <mxCell id="MUbadtuSSWlXPX1V-RnH-14" value="&lt;font color=&quot;#000000&quot;&gt;RealTime DataBase&lt;/font&gt;&lt;br&gt;Firebase" style="sketch=0;dashed=0;connectable=0;html=1;fillColor=#5184F3;strokeColor=none;shape=mxgraph.gcp2.firebase;part=1;labelPosition=right;verticalLabelPosition=middle;align=left;verticalAlign=middle;spacingLeft=5;fontColor=#999999;fontSize=12;" parent="MUbadtuSSWlXPX1V-RnH-13" vertex="1">
          <mxGeometry width="32.4" height="45" relative="1" as="geometry">
            <mxPoint x="5" y="7" as="offset" />
          </mxGeometry>
        </mxCell>
        <mxCell id="MUbadtuSSWlXPX1V-RnH-15" value="" style="strokeColor=#dddddd;shadow=1;strokeWidth=1;rounded=1;absoluteArcSize=1;arcSize=2;" parent="1" vertex="1">
          <mxGeometry x="490" y="350" width="100" height="60" as="geometry" />
        </mxCell>
        <mxCell id="MUbadtuSSWlXPX1V-RnH-16" value="&lt;font color=&quot;#000000&quot;&gt;Storage&lt;/font&gt;&lt;br&gt;Firebase" style="sketch=0;dashed=0;connectable=0;html=1;fillColor=#5184F3;strokeColor=none;shape=mxgraph.gcp2.firebase;part=1;labelPosition=right;verticalLabelPosition=middle;align=left;verticalAlign=middle;spacingLeft=5;fontColor=#999999;fontSize=12;" parent="MUbadtuSSWlXPX1V-RnH-15" vertex="1">
          <mxGeometry width="32.4" height="45" relative="1" as="geometry">
            <mxPoint x="5" y="7" as="offset" />
          </mxGeometry>
        </mxCell>
        <mxCell id="MUbadtuSSWlXPX1V-RnH-17" value="" style="strokeColor=#dddddd;shadow=1;strokeWidth=1;rounded=1;absoluteArcSize=1;arcSize=2;" parent="1" vertex="1">
          <mxGeometry x="490" y="170" width="130" height="60" as="geometry" />
        </mxCell>
        <mxCell id="MUbadtuSSWlXPX1V-RnH-18" value="&lt;font color=&quot;#000000&quot;&gt;Authentication&lt;/font&gt;&lt;br&gt;Firebase" style="sketch=0;dashed=0;connectable=0;html=1;fillColor=#5184F3;strokeColor=none;shape=mxgraph.gcp2.firebase;part=1;labelPosition=right;verticalLabelPosition=middle;align=left;verticalAlign=middle;spacingLeft=5;fontColor=#999999;fontSize=12;" parent="MUbadtuSSWlXPX1V-RnH-17" vertex="1">
          <mxGeometry width="32.4" height="45" relative="1" as="geometry">
            <mxPoint x="5" y="7" as="offset" />
          </mxGeometry>
        </mxCell>
        <mxCell id="MUbadtuSSWlXPX1V-RnH-19" value="" style="strokeColor=#dddddd;shadow=1;strokeWidth=1;rounded=1;absoluteArcSize=1;arcSize=2;" parent="1" vertex="1">
          <mxGeometry x="490" y="440" width="100" height="60" as="geometry" />
        </mxCell>
        <mxCell id="MUbadtuSSWlXPX1V-RnH-20" value="&lt;font color=&quot;#000000&quot;&gt;Function&lt;/font&gt;&lt;br&gt;Firebase" style="sketch=0;dashed=0;connectable=0;html=1;fillColor=#5184F3;strokeColor=none;shape=mxgraph.gcp2.firebase;part=1;labelPosition=right;verticalLabelPosition=middle;align=left;verticalAlign=middle;spacingLeft=5;fontColor=#999999;fontSize=12;" parent="MUbadtuSSWlXPX1V-RnH-19" vertex="1">
          <mxGeometry width="32.4" height="45" relative="1" as="geometry">
            <mxPoint x="5" y="7" as="offset" />
          </mxGeometry>
        </mxCell>
        <mxCell id="MUbadtuSSWlXPX1V-RnH-21" value="" style="endArrow=classic;html=1;rounded=0;entryX=-0.014;entryY=0.424;entryDx=0;entryDy=0;entryPerimeter=0;exitX=1;exitY=0.5;exitDx=0;exitDy=0;startArrow=none;startFill=0;edgeStyle=orthogonalEdgeStyle;" parent="1" source="MUbadtuSSWlXPX1V-RnH-4" target="MUbadtuSSWlXPX1V-RnH-17" edge="1">
          <mxGeometry width="50" height="50" relative="1" as="geometry">
            <mxPoint x="320" y="380" as="sourcePoint" />
            <mxPoint x="370" y="330" as="targetPoint" />
            <Array as="points">
              <mxPoint x="430" y="380" />
              <mxPoint x="430" y="195" />
            </Array>
          </mxGeometry>
        </mxCell>
        <mxCell id="MUbadtuSSWlXPX1V-RnH-22" value="" style="endArrow=classic;html=1;rounded=0;entryX=0;entryY=0.5;entryDx=0;entryDy=0;startArrow=none;startFill=0;edgeStyle=orthogonalEdgeStyle;" parent="1" target="MUbadtuSSWlXPX1V-RnH-13" edge="1">
          <mxGeometry width="50" height="50" relative="1" as="geometry">
            <mxPoint x="380" y="380" as="sourcePoint" />
            <mxPoint x="370" y="330" as="targetPoint" />
            <Array as="points">
              <mxPoint x="380" y="381" />
              <mxPoint x="430" y="381" />
              <mxPoint x="430" y="290" />
            </Array>
          </mxGeometry>
        </mxCell>
        <mxCell id="MUbadtuSSWlXPX1V-RnH-24" value="" style="endArrow=classic;html=1;rounded=0;entryX=0;entryY=0.5;entryDx=0;entryDy=0;" parent="1" target="MUbadtuSSWlXPX1V-RnH-15" edge="1">
          <mxGeometry width="50" height="50" relative="1" as="geometry">
            <mxPoint x="380" y="380" as="sourcePoint" />
            <mxPoint x="370" y="330" as="targetPoint" />
          </mxGeometry>
        </mxCell>
        <mxCell id="MUbadtuSSWlXPX1V-RnH-25" value="" style="endArrow=classic;html=1;rounded=0;entryX=0;entryY=0.5;entryDx=0;entryDy=0;edgeStyle=orthogonalEdgeStyle;" parent="1" target="MUbadtuSSWlXPX1V-RnH-19" edge="1">
          <mxGeometry width="50" height="50" relative="1" as="geometry">
            <mxPoint x="380" y="380" as="sourcePoint" />
            <mxPoint x="370" y="330" as="targetPoint" />
            <Array as="points">
              <mxPoint x="380" y="381" />
              <mxPoint x="430" y="381" />
              <mxPoint x="430" y="470" />
            </Array>
          </mxGeometry>
        </mxCell>
        <mxCell id="0aiFFdgzDsPQwecSxqSb-1" value="" style="strokeColor=#dddddd;shadow=1;strokeWidth=1;rounded=1;absoluteArcSize=1;arcSize=2;" vertex="1" parent="1">
          <mxGeometry x="490" y="530" width="160" height="60" as="geometry" />
        </mxCell>
        <mxCell id="0aiFFdgzDsPQwecSxqSb-2" value="&lt;font color=&quot;#000000&quot;&gt;FireStore Database&lt;/font&gt;" style="sketch=0;dashed=0;connectable=0;html=1;fillColor=#5184F3;strokeColor=none;shape=mxgraph.gcp2.firebase;part=1;labelPosition=right;verticalLabelPosition=middle;align=left;verticalAlign=middle;spacingLeft=5;fontColor=#999999;fontSize=12;" vertex="1" parent="0aiFFdgzDsPQwecSxqSb-1">
          <mxGeometry width="32.4" height="45" relative="1" as="geometry">
            <mxPoint x="5" y="7" as="offset" />
          </mxGeometry>
        </mxCell>
        <mxCell id="0aiFFdgzDsPQwecSxqSb-3" value="" style="endArrow=classic;html=1;rounded=0;exitX=1;exitY=0.5;exitDx=0;exitDy=0;entryX=0;entryY=0.5;entryDx=0;entryDy=0;edgeStyle=orthogonalEdgeStyle;" edge="1" parent="1" source="MUbadtuSSWlXPX1V-RnH-4" target="0aiFFdgzDsPQwecSxqSb-1">
          <mxGeometry width="50" height="50" relative="1" as="geometry">
            <mxPoint x="490" y="510" as="sourcePoint" />
            <mxPoint x="540" y="460" as="targetPoint" />
            <Array as="points">
              <mxPoint x="430" y="380" />
              <mxPoint x="430" y="560" />
            </Array>
          </mxGeometry>
        </mxCell>
      </root>
    </mxGraphModel>
  </diagram>
</mxfile>
